<svg width="92" height="24" viewBox="0 0 92 24" fill="none" xmlns="http://www.w3.org/2000/svg">
<path d="M10.6016 8.24219C10.5859 8.19531 10.6328 8.07812 10.7422 7.89062C10.8516 7.6875 10.9688 7.44531 11.0938 7.16406C11.2344 6.86719 11.3672 6.53906 11.4922 6.17969C11.6328 5.80469 11.7266 5.42188 11.7734 5.03125C11.8359 4.64062 11.8359 4.25 11.7734 3.85938C11.7109 3.46875 11.5469 3.09375 11.2812 2.73438C11.125 2.54688 10.8906 2.44531 10.5781 2.42969C10.2812 2.39844 9.9375 2.44531 9.54688 2.57031C9.17188 2.67969 8.77344 2.85938 8.35156 3.10938C7.94531 3.34375 7.57031 3.625 7.22656 3.95312C6.88281 4.26562 6.58594 4.61719 6.33594 5.00781C6.10156 5.39844 5.96875 5.79688 5.9375 6.20312C5.90625 6.53125 5.91406 6.83594 5.96094 7.11719C6.02344 7.39844 6.10156 7.65625 6.19531 7.89062C6.28906 8.125 6.39062 8.34375 6.5 8.54688C6.60938 8.75 6.71094 8.92969 6.80469 9.08594C6.92969 9.30469 7.125 9.54688 7.39062 9.8125C7.65625 10.0781 7.94531 10.3828 8.25781 10.7266C8.57031 11.0547 8.88281 11.4297 9.19531 11.8516C9.50781 12.2734 9.78125 12.75 10.0156 13.2812C10.25 13.8125 10.4141 14.4062 10.5078 15.0625C10.6016 15.7188 10.5938 16.4453 10.4844 17.2422C10.3125 18.3984 10.0391 19.3594 9.66406 20.125C9.28906 20.9062 8.875 21.5312 8.42188 22C7.98438 22.4688 7.53906 22.8047 7.08594 23.0078C6.63281 23.2266 6.25781 23.3672 5.96094 23.4297C5.72656 23.4766 5.44531 23.5156 5.11719 23.5469C4.80469 23.5938 4.46875 23.5859 4.10938 23.5234C3.76562 23.4766 3.41406 23.3672 3.05469 23.1953C2.69531 23.0391 2.375 22.7891 2.09375 22.4453C1.76562 22.0547 1.50781 21.6328 1.32031 21.1797C1.14844 20.7891 1.02344 20.3359 0.945312 19.8203C0.851562 19.3203 0.890625 18.7969 1.0625 18.25C1.1875 18.1094 1.32031 17.9844 1.46094 17.875C1.60156 17.7656 1.74219 17.6719 1.88281 17.5938C2.03906 17.5 2.20312 17.4141 2.375 17.3359C2.57812 17.2734 2.78125 17.2188 2.98438 17.1719C3.15625 17.1406 3.33594 17.125 3.52344 17.125C3.72656 17.1094 3.91406 17.1328 4.08594 17.1953C3.85156 17.4609 3.6875 17.7109 3.59375 17.9453C3.53125 18.0703 3.48438 18.1797 3.45312 18.2734C3.39062 18.5703 3.36719 18.9219 3.38281 19.3281C3.41406 19.75 3.5 20.1484 3.64062 20.5234C3.79688 20.9141 4.01562 21.2422 4.29688 21.5078C4.57812 21.7891 4.95312 21.9375 5.42188 21.9531C6.5625 21.9844 7.53125 21.0938 8.32812 19.2812C8.59375 18.7188 8.72656 18.1484 8.72656 17.5703C8.74219 16.9922 8.67188 16.4375 8.51562 15.9062C8.375 15.375 8.17969 14.8828 7.92969 14.4297C7.69531 13.9609 7.45312 13.5625 7.20312 13.2344C6.95312 12.9062 6.64844 12.5547 6.28906 12.1797C5.94531 11.7891 5.60156 11.3672 5.25781 10.9141C4.91406 10.4609 4.60156 9.96875 4.32031 9.4375C4.05469 8.90625 3.875 8.32812 3.78125 7.70312C3.65625 6.82812 3.73438 6.03125 4.01562 5.3125C4.3125 4.57812 4.70312 3.9375 5.1875 3.39062C5.6875 2.84375 6.22656 2.39844 6.80469 2.05469C7.39844 1.71094 7.92188 1.49219 8.375 1.39844C10.8906 0.898437 12.5391 1.32031 13.3203 2.66406C13.6484 3.17969 13.8281 3.72656 13.8594 4.30469C13.8906 4.88281 13.8516 5.42188 13.7422 5.92188C13.6484 6.40625 13.5234 6.82031 13.3672 7.16406C13.2266 7.49219 13.1328 7.67188 13.0859 7.70312C12.9922 7.79688 12.8438 7.89844 12.6406 8.00781C12.4375 8.11719 12.1094 8.21875 11.6562 8.3125C11.5312 8.34375 11.4062 8.35938 11.2812 8.35938C11.1719 8.35938 11.0547 8.35156 10.9297 8.33594C10.8047 8.32031 10.6953 8.28906 10.6016 8.24219ZM24.3125 17.9219C24.3125 17.5938 24.3438 17.2188 24.4062 16.7969C24.4844 16.375 24.5781 15.9453 24.6875 15.5078C24.7969 15.0547 24.9062 14.6172 25.0156 14.1953C25.125 13.7734 25.2188 13.3984 25.2969 13.0703C25.3906 12.6641 25.3828 12.3516 25.2734 12.1328C25.1641 11.9141 24.9766 11.8047 24.7109 11.8047C24.5859 11.8047 24.3359 11.9141 23.9609 12.1328C23.6016 12.3516 23.2031 12.7344 22.7656 13.2812C22.3438 13.8125 21.9219 14.5391 21.5 15.4609C21.0938 16.3672 20.7734 17.5234 20.5391 18.9297C20.2422 19.0859 19.9609 19.1875 19.6953 19.2344C19.5547 19.2656 19.4297 19.2891 19.3203 19.3047C19.0078 19.3203 18.8047 19.2656 18.7109 19.1406C18.6172 19.0312 18.6328 18.75 18.7578 18.2969C18.8203 18.0781 18.9297 17.7266 19.0859 17.2422C19.2578 16.7578 19.4219 16.2344 19.5781 15.6719C19.7344 15.0938 19.8672 14.5234 19.9766 13.9609C20.1016 13.3828 20.1641 12.8828 20.1641 12.4609C20.1641 12.1641 20.1094 11.9609 20 11.8516C19.9062 11.7422 19.7656 11.6875 19.5781 11.6875C19.4375 11.6875 19.2031 11.7656 18.875 11.9219C18.5469 12.0781 18.1797 12.3828 17.7734 12.8359C17.3672 13.2891 16.9609 13.9219 16.5547 14.7344C16.1641 15.5312 15.8281 16.5703 15.5469 17.8516V17.8047C15.5156 17.9297 15.4844 18.0547 15.4531 18.1797C15.4219 18.2891 15.3984 18.4062 15.3828 18.5312C15.3672 18.6562 15.3438 18.7734 15.3125 18.8828L14.1406 19.3984C14.0625 19.4297 13.9609 19.4531 13.8359 19.4688C13.7266 19.4844 13.6172 19.4609 13.5078 19.3984C13.4141 19.3516 13.3438 19.2422 13.2969 19.0703C13.25 18.8984 13.2656 18.6406 13.3438 18.2969L14.8203 12.1797C14.8672 11.9766 14.9062 11.7812 14.9375 11.5938C14.9688 11.4219 14.9844 11.2578 14.9844 11.1016C15 10.9297 14.9922 10.7891 14.9609 10.6797C15.2266 10.5547 15.4609 10.4609 15.6641 10.3984C15.8672 10.3359 16.0312 10.2891 16.1562 10.2578C16.3125 10.2109 16.4453 10.1875 16.5547 10.1875C17.0547 10.1875 17.2188 10.6172 17.0469 11.4766C16.9844 11.7266 16.8906 12.0938 16.7656 12.5781C17.0625 12.2031 17.375 11.8516 17.7031 11.5234C18.0469 11.1797 18.3906 10.875 18.7344 10.6094C19.0781 10.3438 19.4219 10.1328 19.7656 9.97656C20.125 9.82031 20.4766 9.74219 20.8203 9.74219C21.0859 9.74219 21.3047 9.82031 21.4766 9.97656C21.6641 10.1328 21.8047 10.3438 21.8984 10.6094C22.0078 10.8594 22.0703 11.1641 22.0859 11.5234C22.1016 11.8672 22.0859 12.2266 22.0391 12.6016C22.2891 12.2734 22.5625 11.9453 22.8594 11.6172C23.1719 11.2734 23.4922 10.9688 23.8203 10.7031C24.1641 10.4375 24.5156 10.2188 24.875 10.0469C25.2344 9.875 25.5938 9.78906 25.9531 9.78906C26.375 9.78906 26.6953 9.91406 26.9141 10.1641C27.1484 10.4141 27.3047 10.7344 27.3828 11.125C27.4766 11.5156 27.5 11.9375 27.4531 12.3906C27.4219 12.8438 27.3594 13.2812 27.2656 13.7031L26.4688 16.8672C26.2969 17.6484 26.4609 18.0391 26.9609 18.0391C27.3516 18.0391 27.7812 17.8516 28.25 17.4766C28.7188 17.1016 29.1719 16.6562 29.6094 16.1406C30.0625 15.625 30.4844 15.0938 30.875 14.5469C31.2656 14 31.5938 13.5625 31.8594 13.2344C31.9531 13.125 32.0469 13.0625 32.1406 13.0469C32.25 13.0312 32.3359 13.0547 32.3984 13.1172C32.4766 13.1641 32.5156 13.25 32.5156 13.375C32.5312 13.5 32.4922 13.6562 32.3984 13.8438C32.0859 14.3906 31.7031 15 31.25 15.6719C30.7969 16.3281 30.2969 16.9453 29.75 17.5234C29.2188 18.1016 28.6484 18.5859 28.0391 18.9766C27.4297 19.3672 26.7969 19.5625 26.1406 19.5625C25.9219 19.5625 25.7031 19.5391 25.4844 19.4922C25.2812 19.4453 25.0859 19.3594 24.8984 19.2344C24.7266 19.1094 24.5859 18.9453 24.4766 18.7422C24.3672 18.5234 24.3125 18.25 24.3125 17.9219ZM35.7734 5.19531C35.7266 5.36719 35.6328 5.53906 35.4922 5.71094C35.3672 5.86719 35.2188 6 35.0469 6.10938C34.8906 6.20312 34.7266 6.26562 34.5547 6.29688C34.3828 6.32812 34.2422 6.29688 34.1328 6.20312C33.8047 5.95312 33.6328 5.6875 33.6172 5.40625C33.6016 5.10938 33.6719 4.83594 33.8281 4.58594C33.9844 4.32031 34.1797 4.10156 34.4141 3.92969C34.6484 3.74219 34.8516 3.63281 35.0234 3.60156C35.1953 3.57031 35.3359 3.60938 35.4453 3.71875C35.5703 3.8125 35.6641 3.94531 35.7266 4.11719C35.7891 4.27344 35.8203 4.45312 35.8203 4.65625C35.8359 4.85938 35.8203 5.03906 35.7734 5.19531ZM32.5391 10.1875C32.6172 10.0938 32.7656 10.0156 32.9844 9.95312C33.2031 9.89062 33.4297 9.84375 33.6641 9.8125C33.8984 9.76562 34.1094 9.74219 34.2969 9.74219C34.5 9.72656 34.6172 9.72656 34.6484 9.74219C34.6641 9.75781 34.625 9.92188 34.5312 10.2344C34.4375 10.5469 34.3203 10.9141 34.1797 11.3359C34.0391 11.7578 33.8906 12.1953 33.7344 12.6484C33.5781 13.0859 33.4609 13.4453 33.3828 13.7266C33.3047 14.0078 33.2109 14.3281 33.1016 14.6875C32.9922 15.0312 32.8906 15.375 32.7969 15.7188C32.7188 16.0469 32.6641 16.3594 32.6328 16.6562C32.6016 16.9531 32.625 17.1797 32.7031 17.3359C32.7812 17.5234 32.8672 17.6562 32.9609 17.7344C33.0547 17.7969 33.1562 17.8281 33.2656 17.8281C33.5781 17.8281 33.9688 17.6562 34.4375 17.3125C34.9219 16.9688 35.4062 16.5625 35.8906 16.0938C36.3906 15.6094 36.8516 15.125 37.2734 14.6406C37.6953 14.1406 38.0078 13.7422 38.2109 13.4453C38.3359 13.2891 38.4609 13.1875 38.5859 13.1406C38.7266 13.0938 38.8359 13.1016 38.9141 13.1641C39.0078 13.2266 39.0547 13.3281 39.0547 13.4688C39.0703 13.6094 39.0234 13.7734 38.9141 13.9609C38.6641 14.3984 38.2969 14.9219 37.8125 15.5312C37.3281 16.125 36.8125 16.7031 36.2656 17.2656C35.7188 17.8125 35.1797 18.2812 34.6484 18.6719C34.1328 19.0625 33.7109 19.2656 33.3828 19.2812C33.1172 19.2969 32.8516 19.25 32.5859 19.1406C32.3359 19.0469 32.1016 18.9141 31.8828 18.7422C31.6797 18.5547 31.5078 18.3438 31.3672 18.1094C31.2266 17.8594 31.1484 17.6016 31.1328 17.3359C31.0859 16.9453 31.0859 16.4141 31.1328 15.7422C31.1797 15.0547 31.2656 14.3594 31.3906 13.6562C31.5156 12.9375 31.6719 12.2578 31.8594 11.6172C32.0625 10.9766 32.2891 10.5 32.5391 10.1875ZM36.8516 18.625C37.5391 15.7344 38.0859 13.4141 38.4922 11.6641C38.9141 9.91406 39.2344 8.57812 39.4531 7.65625C39.7031 6.5625 39.875 5.80469 39.9688 5.38281C40.0156 5.08594 40.0547 4.79688 40.0859 4.51562C40.1172 4.26562 40.1328 4.00781 40.1328 3.74219C40.1328 3.47656 40.1094 3.23438 40.0625 3.01562C40.1875 2.9375 40.3203 2.875 40.4609 2.82812C40.6172 2.78125 40.7656 2.74219 40.9062 2.71094C41.0781 2.66406 41.25 2.625 41.4219 2.59375C41.5938 2.5625 41.75 2.54688 41.8906 2.54688C42.0156 2.54688 42.1328 2.5625 42.2422 2.59375C42.3516 2.60937 42.4219 2.65625 42.4531 2.73438C42.5469 2.8125 42.5859 2.96875 42.5703 3.20312C42.5703 3.4375 42.5547 3.67969 42.5234 3.92969C42.4609 4.22656 42.3906 4.54688 42.3125 4.89062C42.125 5.5625 41.8672 6.53125 41.5391 7.79688C41.2578 8.875 40.875 10.3438 40.3906 12.2031C39.9219 14.0625 39.3281 16.4062 38.6094 19.2344C38.5312 19.3125 38.4375 19.3672 38.3281 19.3984C38.2188 19.4297 38.1172 19.4453 38.0234 19.4453C37.9141 19.4453 37.7969 19.4375 37.6719 19.4219C37.5625 19.3906 37.4531 19.3438 37.3438 19.2812C37.25 19.2188 37.1562 19.1328 37.0625 19.0234C36.9688 18.9297 36.8984 18.7969 36.8516 18.625ZM53.0703 14.125C52.6016 14.8125 52.0703 15.4844 51.4766 16.1406C50.8828 16.7812 50.25 17.3594 49.5781 17.875C48.9219 18.375 48.2422 18.7812 47.5391 19.0938C46.8516 19.4062 46.1797 19.5625 45.5234 19.5625C45.1797 19.5625 44.8047 19.4766 44.3984 19.3047C44.0078 19.1484 43.6484 18.8984 43.3203 18.5547C42.9922 18.2109 42.7266 17.7656 42.5234 17.2188C42.3359 16.6719 42.2812 16.0078 42.3594 15.2266C42.4219 14.5859 42.6172 13.9141 42.9453 13.2109C43.2891 12.4922 43.7031 11.8359 44.1875 11.2422C44.6875 10.6484 45.2422 10.1562 45.8516 9.76562C46.4766 9.375 47.1016 9.17969 47.7266 9.17969C48.3203 9.17969 48.75 9.32812 49.0156 9.625C49.2812 9.92188 49.3984 10.2891 49.3672 10.7266C49.3203 11.2109 49.1797 11.6562 48.9453 12.0625C48.7266 12.4688 48.4609 12.8359 48.1484 13.1641C47.8359 13.4922 47.5 13.7891 47.1406 14.0547C46.7969 14.3203 46.4688 14.5625 46.1562 14.7812C45.8125 15.0156 45.4844 15.2422 45.1719 15.4609C44.8594 15.6641 44.5859 15.8516 44.3516 16.0234C44.3672 16.4141 44.4375 16.7422 44.5625 17.0078C44.6875 17.2734 44.8438 17.4922 45.0312 17.6641C45.2188 17.8203 45.4297 17.9375 45.6641 18.0156C45.9141 18.0781 46.1641 18.1094 46.4141 18.1094C46.9453 18.1094 47.5 17.9453 48.0781 17.6172C48.6562 17.2734 49.2188 16.8672 49.7656 16.3984C50.3281 15.9141 50.8438 15.4141 51.3125 14.8984C51.7969 14.3828 52.1953 13.9375 52.5078 13.5625C52.6172 13.4375 52.7266 13.3672 52.8359 13.3516C52.9609 13.3203 53.0547 13.3359 53.1172 13.3984C53.1953 13.4453 53.2344 13.5391 53.2344 13.6797C53.2344 13.8047 53.1797 13.9531 53.0703 14.125ZM47.0703 10.5156C46.8828 10.5156 46.6562 10.6094 46.3906 10.7969C46.1406 10.9844 45.8906 11.2578 45.6406 11.6172C45.3906 11.9609 45.1562 12.3906 44.9375 12.9062C44.7188 13.4062 44.5547 13.9844 44.4453 14.6406C44.6328 14.5 44.8359 14.3594 45.0547 14.2188C45.2734 14.0625 45.4922 13.8984 45.7109 13.7266C46.3828 13.2109 46.8516 12.7578 47.1172 12.3672C47.3828 11.9766 47.5312 11.6406 47.5625 11.3594C47.5938 11.0625 47.5625 10.8516 47.4688 10.7266C47.375 10.5859 47.2422 10.5156 47.0703 10.5156Z" fill="#87CEEB" style="fill:#87CEEB;fill:color(display-p3 0.5294 0.8078 0.9216);fill-opacity:1;"/>
<path d="M55.0391 7.9375C54.9609 8.21875 54.8594 8.625 54.7344 9.15625C54.625 9.67188 54.5 10.2656 54.3594 10.9375C54.2344 11.6094 54.0938 12.3203 53.9375 13.0703C53.7969 13.8047 53.6641 14.5312 53.5391 15.25C53.4297 15.9688 53.3281 16.6484 53.2344 17.2891C53.1406 17.9141 53.0859 18.4453 53.0703 18.8828C53.0547 19.3672 53.0547 19.8438 53.0703 20.3125C53.0859 20.7188 53.1094 21.1406 53.1406 21.5781C53.1875 22.0312 53.2656 22.4297 53.375 22.7734C53.1094 22.8984 52.875 22.9844 52.6719 23.0312C52.4688 23.0938 52.3047 23.1406 52.1797 23.1719C52.0234 23.2031 51.8906 23.2188 51.7812 23.2188C51.6562 23.2188 51.5078 23.2031 51.3359 23.1719C51.1641 23.1562 51.0078 23.0781 50.8672 22.9375C50.7266 22.7969 50.6094 22.5781 50.5156 22.2812C50.4219 21.9844 50.3906 21.5547 50.4219 20.9922C50.4375 20.6172 50.5 20.1484 50.6094 19.5859C50.7031 19.0391 50.8203 18.4375 50.9609 17.7812C51.1016 17.1094 51.2578 16.4219 51.4297 15.7188C51.6172 15 51.7969 14.3047 51.9688 13.6328C52.1406 12.9453 52.2969 12.2969 52.4375 11.6875C52.5938 11.0781 52.7266 10.5547 52.8359 10.1172C52.9766 9.55469 53.1328 8.89844 53.3047 8.14844C53.6016 6.86719 54.0469 4.94531 54.6406 2.38281C54.75 2.30469 54.8672 2.23437 54.9922 2.17188C55.1172 2.09375 55.2266 2.03125 55.3203 1.98438C55.4297 1.92188 55.5391 1.875 55.6484 1.84375C56.1484 1.65625 56.5 1.63281 56.7031 1.77344C56.9219 1.91406 57.0469 2.19531 57.0781 2.61719C57.0938 2.89844 57.125 3.30469 57.1719 3.83594C57.2344 4.36719 57.2891 4.96094 57.3359 5.61719C57.3828 6.27344 57.4219 6.95312 57.4531 7.65625C57.4844 8.34375 57.5 8.98438 57.5 9.57812C57.5 9.96875 57.5078 10.4297 57.5234 10.9609C57.5391 11.4922 57.5625 12.0547 57.5938 12.6484C57.625 13.2422 57.6641 13.8516 57.7109 14.4766C57.7578 15.0859 57.8125 15.6719 57.875 16.2344C57.9375 16.7969 58 17.3125 58.0625 17.7812C58.1406 18.25 58.2188 18.6328 58.2969 18.9297C58.3281 19.0547 58.3594 19.1719 58.3906 19.2812C58.4375 19.3906 58.4766 19.5 58.5078 19.6094C58.6016 19.2344 58.7031 18.7891 58.8125 18.2734C58.9375 17.7578 59.0625 17.2109 59.1875 16.6328C59.3281 16.0391 59.4609 15.4375 59.5859 14.8281C59.7109 14.2031 59.8203 13.6172 59.9141 13.0703C59.9922 12.6328 60.0781 12.0703 60.1719 11.3828C60.2656 10.6953 60.375 9.95312 60.5 9.15625C60.3281 9.09375 60.1641 9.03125 60.0078 8.96875C59.8672 8.90625 59.7266 8.82812 59.5859 8.73438C59.4453 8.64062 59.3281 8.53125 59.2344 8.40625C59.25 8.20312 59.2656 8.05469 59.2812 7.96094C59.3125 7.86719 59.3906 7.85938 59.5156 7.9375C59.6094 7.98438 59.75 8.03906 59.9375 8.10156C60.1406 8.16406 60.375 8.21094 60.6406 8.24219C60.7188 7.80469 60.8047 7.36719 60.8984 6.92969C61.0078 6.49219 61.1172 6.07031 61.2266 5.66406C61.3984 4.99219 61.5938 4.39062 61.8125 3.85938C62.0312 3.3125 62.2812 2.85156 62.5625 2.47656C62.8594 2.10156 63.2031 1.8125 63.5938 1.60938C63.9844 1.40625 64.4375 1.29687 64.9531 1.28125C65.4375 1.28125 65.8281 1.48437 66.125 1.89062C66.4375 2.28125 66.5703 2.96875 66.5234 3.95312C66.4922 4.6875 66.3359 5.35156 66.0547 5.94531C65.7891 6.52344 65.4609 7.03906 65.0703 7.49219C64.6797 7.92969 64.25 8.29688 63.7812 8.59375C63.3125 8.875 62.8672 9.07812 62.4453 9.20312C62.3047 9.9375 62.1719 10.6797 62.0469 11.4297C61.9219 12.1641 61.7969 12.8828 61.6719 13.5859C61.5625 14.2734 61.4453 14.9297 61.3203 15.5547C61.2109 16.1797 61.1016 16.7344 60.9922 17.2188C60.8828 17.6875 60.7656 18.1953 60.6406 18.7422C60.5312 19.2109 60.3984 19.75 60.2422 20.3594C60.0859 20.9688 59.9219 21.6094 59.75 22.2812C59.6875 22.4219 59.6094 22.5391 59.5156 22.6328C59.4219 22.7422 59.3281 22.8281 59.2344 22.8906C59.125 22.9688 59.0156 23.0312 58.9062 23.0781C58.5938 23.2031 58.3281 23.2266 58.1094 23.1484C57.8906 23.0703 57.6953 22.8594 57.5234 22.5156C57.3516 22.1562 57.1953 21.7109 57.0547 21.1797C56.9297 20.6484 56.7969 20.0703 56.6562 19.4453C56.5156 18.7734 56.4062 18.0469 56.3281 17.2656C56.2656 16.4688 56.2109 15.6641 56.1641 14.8516C56.1328 14.0234 56.1094 13.2031 56.0938 12.3906C56.0781 11.5781 56.0469 10.8125 56 10.0938C55.9219 9.15625 55.8438 8.32031 55.7656 7.58594C55.6875 6.83594 55.6016 6.20312 55.5078 5.6875C55.4453 6 55.375 6.35156 55.2969 6.74219C55.2188 7.13281 55.1328 7.53125 55.0391 7.9375ZM62.9141 6.95312C62.8359 7.25 62.7734 7.53125 62.7266 7.79688C63.1016 7.57812 63.4531 7.30469 63.7812 6.97656C64.1094 6.63281 64.3906 6.27344 64.625 5.89844C64.8594 5.52344 65.0391 5.14844 65.1641 4.77344C65.3047 4.39844 65.3828 4.05469 65.3984 3.74219C65.4141 3.52344 65.3906 3.35156 65.3281 3.22656C65.2812 3.08594 65.1875 3.01562 65.0469 3.01562C64.9688 3.01562 64.8438 3.0625 64.6719 3.15625C64.5156 3.23438 64.3359 3.41406 64.1328 3.69531C63.9297 3.96094 63.7188 4.35156 63.5 4.86719C63.2969 5.38281 63.1016 6.07812 62.9141 6.95312ZM71.3047 15.2734C71.1484 15.8672 70.9375 16.4219 70.6719 16.9375C70.4062 17.4531 70.0859 17.8984 69.7109 18.2734C69.3516 18.6484 68.9375 18.9375 68.4688 19.1406C68.0156 19.3594 67.5156 19.4688 66.9688 19.4688C66.3281 19.4688 65.8203 19.3281 65.4453 19.0469C65.0859 18.7812 64.8125 18.4453 64.625 18.0391C64.4531 17.6328 64.3516 17.1875 64.3203 16.7031C64.2734 16.2188 64.25 15.7656 64.25 15.3438C64.25 15.0469 64.2891 14.7188 64.3672 14.3594C64.4297 14 64.5234 13.6328 64.6484 13.2578C64.7734 12.8828 64.9297 12.5078 65.1172 12.1328C65.3203 11.7578 65.5547 11.4141 65.8203 11.1016C65.9141 10.8359 66.0547 10.6016 66.2422 10.3984C66.4453 10.1953 66.6719 10.0312 66.9219 9.90625C67.1875 9.76562 67.4688 9.66406 67.7656 9.60156C68.0625 9.52344 68.3516 9.48438 68.6328 9.48438C68.6797 9.48438 68.7188 9.49219 68.75 9.50781C68.7969 9.52344 68.8438 9.53906 68.8906 9.55469C69.0938 9.57031 69.3438 9.64844 69.6406 9.78906C69.9531 9.92969 70.25 10.1406 70.5312 10.4219C70.8281 10.7031 71.0781 11.0625 71.2812 11.5C71.4844 11.9219 71.5859 12.4375 71.5859 13.0469C71.5859 13.1719 71.5781 13.3281 71.5625 13.5156C71.5469 13.6875 71.5312 13.8359 71.5156 13.9609C71.875 13.8203 72.25 13.6484 72.6406 13.4453C73.0312 13.2422 73.4062 13.0312 73.7656 12.8125C74.1406 12.5781 74.4844 12.3438 74.7969 12.1094C75.1094 11.875 75.3594 11.6641 75.5469 11.4766C75.7031 11.3359 75.8359 11.2578 75.9453 11.2422C76.0547 11.2266 76.1328 11.2578 76.1797 11.3359C76.2266 11.4141 76.2344 11.5234 76.2031 11.6641C76.1719 11.8047 76.0859 11.9609 75.9453 12.1328C75.8672 12.2266 75.6641 12.4141 75.3359 12.6953C75.0234 12.9766 74.6484 13.2812 74.2109 13.6094C73.7734 13.9375 73.2969 14.2578 72.7812 14.5703C72.2656 14.8828 71.7734 15.1172 71.3047 15.2734ZM67.3438 11.7109C67.2969 11.8516 67.2734 12 67.2734 12.1562C67.2734 12.4062 67.2891 12.6719 67.3203 12.9531C67.3516 13.2188 67.4297 13.4609 67.5547 13.6797C67.6797 13.8984 67.875 14.0859 68.1406 14.2422C68.4219 14.3828 68.8047 14.4531 69.2891 14.4531C69.3672 14.4531 69.4453 14.4531 69.5234 14.4531C69.6016 14.4375 69.6797 14.4219 69.7578 14.4062C69.8047 14.2031 69.8438 14.0234 69.875 13.8672C69.9219 13.6953 69.9453 13.5469 69.9453 13.4219C69.9766 13.125 69.9766 12.8203 69.9453 12.5078C69.9141 12.1953 69.8516 11.9141 69.7578 11.6641C69.6797 11.3984 69.5703 11.1875 69.4297 11.0312C69.3047 10.8594 69.1484 10.7734 68.9609 10.7734C68.6641 10.7734 68.375 10.8594 68.0938 11.0312C67.8281 11.1875 67.5781 11.4141 67.3438 11.7109ZM65.8438 15.8359C65.8438 16.1172 65.8594 16.3984 65.8906 16.6797C65.9219 16.9453 65.9844 17.1875 66.0781 17.4062C66.1719 17.6094 66.2969 17.7812 66.4531 17.9219C66.6094 18.0469 66.8125 18.1094 67.0625 18.1094C67.3438 18.1094 67.6016 18.0469 67.8359 17.9219C68.0703 17.7812 68.2812 17.6094 68.4688 17.4062C68.6562 17.1875 68.8203 16.9453 68.9609 16.6797C69.1172 16.3984 69.25 16.1094 69.3594 15.8125C69.25 15.8281 69.1406 15.8438 69.0312 15.8594C68.9375 15.8594 68.8281 15.8594 68.7031 15.8594C68.1094 15.8594 67.5938 15.6875 67.1562 15.3438C66.7344 14.9844 66.4062 14.5312 66.1719 13.9844C66.0781 14.3125 66 14.6328 65.9375 14.9453C65.875 15.2578 65.8438 15.5547 65.8438 15.8359ZM86.0234 14.9453C85.8047 15.5078 85.5547 16.0547 85.2734 16.5859C84.9922 17.1172 84.6797 17.5938 84.3359 18.0156C83.9922 18.4375 83.625 18.7734 83.2344 19.0234C82.8438 19.2734 82.4219 19.3984 81.9688 19.3984C81.2344 19.3984 80.6797 19.1562 80.3047 18.6719C79.9297 18.1719 79.6719 17.5625 79.5312 16.8438C79.3125 17.1719 79.0781 17.5 78.8281 17.8281C78.5781 18.1562 78.3125 18.4453 78.0312 18.6953C77.75 18.9453 77.4609 19.1484 77.1641 19.3047C76.8672 19.4609 76.5703 19.5391 76.2734 19.5391C75.8672 19.5391 75.5234 19.4531 75.2422 19.2812C74.9609 19.1094 74.7266 18.875 74.5391 18.5781C74.3672 18.2656 74.2422 17.9141 74.1641 17.5234C74.0859 17.1172 74.0469 16.6875 74.0469 16.2344V15.9531C74.0469 15.375 74.0938 14.7812 74.1875 14.1719C74.2812 13.5625 74.3828 13 74.4922 12.4844C74.6172 11.9688 74.7422 11.5234 74.8672 11.1484C74.9922 10.7578 75.0859 10.5 75.1484 10.375C75.2578 10.2188 75.4922 10.0703 75.8516 9.92969C76.2266 9.77344 76.5938 9.71094 76.9531 9.74219C77.125 9.75781 77.2109 9.82812 77.2109 9.95312C77.2266 10.0781 77.2109 10.2344 77.1641 10.4219C77.1016 10.6875 76.9922 11.0859 76.8359 11.6172C76.6797 12.1484 76.5156 12.7266 76.3438 13.3516C76.1875 13.9766 76.0469 14.5938 75.9219 15.2031C75.7969 15.8125 75.7344 16.3203 75.7344 16.7266C75.7344 17.2266 75.8125 17.5859 75.9688 17.8047C76.125 18.0234 76.3672 18.1328 76.6953 18.1328C77.0859 18.1328 77.5156 17.9141 77.9844 17.4766C78.4688 17.0391 78.9375 16.2969 79.3906 15.25C79.375 15.1562 79.3672 15.0625 79.3672 14.9688C79.3672 14.875 79.3672 14.7734 79.3672 14.6641C79.3672 13.9609 79.3906 13.2891 79.4375 12.6484C79.5 12.0078 79.6094 11.4453 79.7656 10.9609C79.9375 10.4766 80.1641 10.0938 80.4453 9.8125C80.7422 9.53125 81.125 9.39062 81.5938 9.39062C81.7812 9.39062 81.9375 9.44531 82.0625 9.55469C82.1875 9.66406 82.25 9.82031 82.25 10.0234C82.25 10.5234 82.0703 11.2344 81.7109 12.1562C81.3672 13.0625 80.9531 14.0625 80.4688 15.1562C80.4219 15.2188 80.3906 15.2812 80.375 15.3438C80.4219 15.6406 80.4766 15.9531 80.5391 16.2812C80.6172 16.6094 80.7188 16.9141 80.8438 17.1953C80.9688 17.4609 81.1172 17.6875 81.2891 17.875C81.4609 18.0469 81.6641 18.1328 81.8984 18.1328C82.2422 18.1328 82.5547 17.9688 82.8359 17.6406C83.1328 17.3125 83.3906 16.9141 83.6094 16.4453C83.8438 15.9766 84.0469 15.4844 84.2188 14.9688C84.3906 14.4375 84.5234 13.9688 84.6172 13.5625C84.5703 13.3906 84.5312 13.2266 84.5 13.0703C84.4688 12.8984 84.4531 12.7031 84.4531 12.4844C84.4531 12 84.5234 11.5859 84.6641 11.2422C84.8047 10.8984 84.9844 10.6172 85.2031 10.3984C85.4375 10.1641 85.6797 9.99219 85.9297 9.88281C86.1953 9.77344 86.4375 9.71875 86.6562 9.71875C87.0469 9.71875 87.2422 9.89062 87.2422 10.2344C87.2422 10.4844 87.1797 10.9219 87.0547 11.5469C86.9297 12.1562 86.75 12.8516 86.5156 13.6328C86.7969 13.7578 87.1562 13.8203 87.5938 13.8203C88 13.8203 88.375 13.7734 88.7188 13.6797C89.0625 13.5703 89.375 13.4375 89.6562 13.2812C89.9375 13.125 90.1953 12.9531 90.4297 12.7656C90.6641 12.5781 90.8906 12.3984 91.1094 12.2266C91.2812 12.1016 91.4219 12.0938 91.5312 12.2031C91.6406 12.3125 91.625 12.4844 91.4844 12.7188C91.3594 12.9219 91.1406 13.1562 90.8281 13.4219C90.5312 13.6875 90.1641 13.9453 89.7266 14.1953C89.3047 14.4297 88.8281 14.6328 88.2969 14.8047C87.7812 14.9609 87.2344 15.0391 86.6562 15.0391C86.5625 15.0391 86.4609 15.0312 86.3516 15.0156C86.2422 15 86.1328 14.9766 86.0234 14.9453Z" fill="#98FF98" style="fill:#98FF98;fill:color(display-p3 0.5961 1.0000 0.5961);fill-opacity:1;"/>
</svg>
